<?xml version="1.0" standalone="no"?>
<!DOCTYPE svg PUBLIC "-//W3C//DTD SVG 20010904//EN"
 "http://www.w3.org/TR/2001/REC-SVG-20010904/DTD/svg10.dtd">
<svg version="1.0" xmlns="http://www.w3.org/2000/svg"
 width="415.000000pt" height="237.000000pt" viewBox="0 0 415.000000 237.000000"
 preserveAspectRatio="xMidYMid meet">

<g transform="translate(0.000000,237.000000) scale(0.100000,-0.100000)"
fill="#000000" stroke="none">
<path d="M2513 2250 c-39 -16 -43 -40 -43 -244 l0 -195 -206 -3 c-264 -4 -244
15 -244 -225 0 -238 -17 -223 250 -223 l200 0 0 -200 c0 -266 -14 -250 214
-250 176 0 207 6 225 47 7 15 11 96 11 213 l0 190 190 0 c199 0 239 7 254 45
3 9 6 88 6 176 0 166 -9 209 -45 223 -9 3 -104 6 -211 6 l-194 0 0 190 c0 199
-7 239 -45 254 -25 9 -337 6 -362 -4z m255 -140 c64 -61 72 -79 47 -100 -12
-10 -24 -3 -68 39 l-53 50 -48 -48 c-51 -52 -86 -59 -86 -18 0 25 107 137 130
137 8 -1 43 -27 78 -60z m5 -396 c63 -33 87 -132 48 -204 -62 -117 -252 -85
-277 46 -8 42 16 112 50 143 45 42 115 48 179 15z m-505 -19 c2 -13 -13 -36
-43 -65 l-45 -44 46 -47 c47 -48 55 -81 21 -87 -23 -5 -137 105 -137 132 0 29
109 138 135 134 11 -2 21 -12 23 -23z m949 -37 c35 -34 63 -67 63 -73 0 -6
-29 -40 -65 -75 -54 -53 -68 -63 -82 -54 -29 18 -26 32 22 83 l47 50 -36 32
c-44 38 -58 62 -50 83 11 29 38 17 101 -46z m-577 -534 l50 -47 50 47 c43 40
53 45 70 36 11 -6 20 -16 20 -23 0 -16 -121 -137 -138 -137 -20 0 -132 110
-132 130 0 14 18 40 27 40 2 0 26 -21 53 -46z"/>
<path d="M80 1585 l0 -345 45 0 45 0 0 70 c0 52 3 70 13 70 8 0 24 -30 38 -70
l24 -70 47 0 c27 0 48 3 48 8 0 4 -12 39 -26 78 l-26 71 26 38 c26 37 26 40
26 224 -1 202 -4 218 -56 252 -23 15 -47 19 -116 19 l-88 0 0 -345z m168 74
c2 -176 2 -177 -20 -183 -60 -16 -58 -23 -58 180 l0 185 38 -3 37 -3 3 -176z"/>
<path d="M450 1585 l0 -345 110 0 110 0 0 45 0 45 -65 0 -65 0 0 140 0 140 65
0 65 0 0 45 0 45 -65 0 -65 0 0 70 0 70 65 0 65 0 0 45 0 45 -110 0 -110 0 0
-345z"/>
<path d="M772 1888 l3 -43 63 -3 62 -3 0 -299 0 -300 45 0 45 0 0 300 0 300
60 0 60 0 0 45 0 45 -171 0 -170 0 3 -42z"/>
<path d="M1200 1585 l0 -345 45 0 45 0 0 70 c0 93 19 94 53 3 l25 -68 51 -3
51 -3 -11 28 c-6 15 -20 52 -31 81 l-20 52 26 31 c26 31 26 31 26 225 0 164
-3 199 -16 220 -28 41 -65 54 -159 54 l-85 0 0 -345z m168 73 l2 -176 -30 -7
c-16 -4 -34 -4 -40 0 -6 4 -10 74 -10 186 l0 180 38 -3 37 -3 3 -177z"/>
<path d="M1626 1909 c-53 -42 -56 -57 -56 -326 0 -228 2 -251 20 -280 52 -87
174 -83 220 7 18 36 20 58 20 282 0 223 -2 246 -20 275 -37 62 -131 84 -184
42z m109 -91 c3 -13 4 -124 3 -247 -3 -200 -5 -225 -20 -235 -13 -8 -23 -8
-35 0 -16 10 -18 35 -21 245 -1 128 0 239 2 246 3 7 19 13 35 13 23 0 32 -5
36 -22z"/>
<path d="M3600 1743 c-54 -19 -54 -88 1 -165 43 -62 50 -110 17 -116 -15 -3
-18 4 -18 32 0 29 -4 36 -20 36 -16 0 -20 -7 -20 -35 0 -54 49 -92 86 -67 18
11 34 49 34 77 0 15 -18 52 -41 85 -29 42 -40 66 -37 87 4 40 32 37 36 -4 2
-25 8 -33 23 -33 29 0 26 54 -6 85 -25 26 -29 27 -55 18z"/>
<path d="M2430 200 c0 -82 3 -100 15 -100 12 0 15 18 15 100 0 82 -3 100 -15
100 -12 0 -15 -18 -15 -100z"/>
<path d="M1732 248 c4 -59 28 -63 28 -4 0 35 -4 46 -16 46 -12 0 -14 -9 -12
-42z"/>
<path d="M1280 226 c0 -2 12 -30 26 -62 21 -47 23 -62 15 -81 -14 -31 -14 -43
2 -43 7 0 27 35 45 77 47 116 46 113 30 113 -8 0 -23 -19 -32 -42 l-18 -43
-15 43 c-10 30 -20 42 -34 42 -10 0 -19 -2 -19 -4z"/>
<path d="M1437 212 c-25 -27 -22 -78 5 -96 47 -33 99 -13 113 46 14 55 -78 94
-118 50z m73 -16 c20 -26 8 -61 -22 -64 -23 -3 -29 2 -34 24 -5 20 -2 31 11
41 24 17 30 16 45 -1z"/>
<path d="M1570 181 c0 -65 16 -81 78 -77 l47 2 3 62 c3 56 1 62 -17 62 -17 0
-20 -8 -23 -47 -3 -41 -6 -48 -25 -51 -21 -3 -23 0 -23 47 0 44 -3 51 -20 51
-17 0 -20 -7 -20 -49z"/>
<path d="M1800 165 c0 -51 3 -65 15 -65 11 0 15 12 15 46 0 37 4 47 20 51 11
3 20 12 20 19 0 17 -12 18 -28 2 -9 -9 -12 -9 -12 0 0 7 -7 12 -15 12 -12 0
-15 -14 -15 -65z"/>
<path d="M1884 195 c-16 -39 -8 -67 26 -85 29 -16 55 -12 75 10 19 21 19 21
-25 18 -27 -2 -44 1 -47 10 -3 8 9 12 41 12 42 0 46 2 46 25 0 28 -25 45 -70
45 -26 0 -33 -6 -46 -35z m84 -2 c2 -9 -7 -13 -27 -13 -30 0 -39 9 -24 24 11
10 46 3 51 -11z"/>
<path d="M2083 168 c28 -78 49 -86 70 -26 l15 43 18 -43 c11 -26 23 -42 32
-40 8 2 24 31 37 66 21 58 21 62 5 62 -12 0 -21 -10 -25 -30 -10 -43 -22 -45
-36 -5 -17 45 -36 44 -56 -2 l-16 -38 -15 38 c-10 24 -21 37 -33 37 -17 0 -17
-3 4 -62z"/>
<path d="M2296 208 c-22 -31 -20 -64 6 -88 24 -22 49 -25 79 -10 33 18 22 31
-21 24 -33 -5 -40 -4 -40 10 0 12 10 16 45 16 38 0 45 3 45 19 0 50 -85 71
-114 29z m74 -13 c0 -9 -9 -15 -25 -15 -24 0 -32 10 -18 23 12 13 43 7 43 -8z"/>
<path d="M2501 217 c-6 -8 -14 -27 -17 -44 -5 -25 -1 -34 21 -52 35 -26 67
-27 90 -1 23 26 12 37 -19 20 -34 -18 -56 -7 -56 29 0 31 26 49 44 31 13 -13
46 -13 46 0 0 27 -88 41 -109 17z"/>
<path d="M2636 208 c-17 -24 -20 -56 -8 -74 10 -16 48 -34 71 -34 28 0 61 38
61 71 0 55 -93 82 -124 37z m86 -23 c20 -45 -38 -79 -62 -36 -13 25 -13 27 6
45 22 23 43 20 56 -9z"/>
<path d="M2780 164 c0 -50 3 -64 15 -64 11 0 15 12 15 44 0 44 19 74 40 61 5
-3 10 -29 10 -56 0 -43 3 -50 18 -47 13 2 18 16 22 53 7 70 33 70 40 0 4 -37
9 -51 23 -53 14 -3 17 5 17 51 0 32 -5 59 -12 65 -7 5 -52 10 -100 10 l-88 0
0 -64z"/>
<path d="M3004 195 c-16 -39 -8 -67 26 -85 29 -16 55 -12 75 10 19 21 19 21
-25 18 -27 -2 -44 1 -47 10 -3 8 9 12 41 12 42 0 46 2 46 25 0 28 -25 45 -70
45 -26 0 -33 -6 -46 -35z m84 -2 c2 -9 -7 -13 -27 -13 -30 0 -39 9 -24 24 11
10 46 3 51 -11z"/>
</g>
</svg>
