<?xml version="1.0" standalone="no"?>
<!DOCTYPE svg PUBLIC "-//W3C//DTD SVG 20010904//EN"
 "http://www.w3.org/TR/2001/REC-SVG-20010904/DTD/svg10.dtd">
<svg version="1.0" xmlns="http://www.w3.org/2000/svg"
 width="622.000000pt" height="290.000000pt" viewBox="0 0 622.000000 290.000000"
 preserveAspectRatio="xMidYMid meet">

<g transform="translate(0.000000,290.000000) scale(0.100000,-0.100000)"
fill="#000000" stroke="none">
<path d="M3234 2590 c-144 -29 -236 -130 -257 -282 l-6 -38 40 0 c37 0 39 1
39 33 0 102 116 217 220 217 28 0 30 2 30 40 0 43 1 43 -66 30z m46 -29 c0
-14 -10 -21 -37 -26 -103 -19 -189 -105 -208 -208 -5 -28 -12 -37 -27 -37 -16
0 -18 5 -12 38 21 117 110 215 219 241 59 13 65 13 65 -8z"/>
<path d="M2512 2338 c-100 -15 -207 -90 -252 -178 -87 -171 -9 -392 168 -473
74 -34 197 -31 279 7 34 15 72 39 84 52 22 24 24 24 220 24 170 0 198 -2 210
-16 23 -28 83 -61 139 -78 166 -49 333 29 406 189 49 107 35 240 -38 341 -35
49 -112 104 -170 123 -97 32 -238 3 -319 -65 l-41 -34 -187 0 -186 0 -36 29
c-82 68 -174 94 -277 79z m190 -45 c31 -14 67 -36 79 -49 22 -24 24 -24 230
-24 179 0 208 2 220 16 46 55 177 100 259 89 71 -10 159 -55 206 -107 117
-127 108 -327 -21 -452 -64 -63 -137 -89 -235 -84 -80 3 -131 23 -201 79 l-37
29 -191 0 -191 0 -59 -43 c-72 -54 -129 -71 -218 -65 -118 6 -218 74 -273 183
-34 68 -36 197 -4 266 79 170 263 239 436 162z"/>
<path d="M2500 2125 l0 -55 -55 0 -55 0 0 -65 0 -65 55 0 55 0 0 -55 0 -55 65
0 65 0 0 55 0 55 55 0 55 0 0 65 0 65 -55 0 -55 0 0 55 0 55 -65 0 -65 0 0
-55z m110 -20 l0 -55 55 0 55 0 0 -50 0 -50 -55 0 -55 0 0 -55 0 -55 -45 0
-45 0 0 55 0 55 -55 0 -55 0 0 50 0 50 55 0 55 0 0 55 0 55 45 0 45 0 0 -55z"/>
<path d="M3415 2155 c-28 -27 -30 -37 -14 -68 23 -43 66 -50 99 -17 28 28 25
64 -6 89 -34 27 -50 26 -79 -4z m73 -7 c28 -28 7 -78 -33 -78 -27 0 -45 18
-45 45 0 27 18 45 45 45 12 0 26 -5 33 -12z"/>
<path d="M3320 2057 c-32 -17 -44 -40 -36 -71 13 -53 95 -60 118 -10 23 50
-33 105 -82 81z m55 -23 c21 -21 16 -53 -10 -70 -41 -27 -88 39 -53 74 17 17
44 15 63 -4z"/>
<path d="M3542 2059 c-30 -11 -45 -52 -30 -84 24 -53 110 -39 116 19 6 47 -40
82 -86 65z m49 -19 c36 -20 21 -80 -20 -80 -48 0 -68 42 -35 74 18 19 28 20
55 6z"/>
<path d="M3406 1928 c-21 -30 -20 -54 4 -78 41 -41 110 -13 110 46 0 51 -84
75 -114 32z m79 -4 c21 -21 16 -53 -10 -70 -18 -12 -24 -11 -43 2 -26 18 -28
46 -6 68 20 20 38 20 59 0z"/>
<path d="M3118 1417 c-44 -13 -108 -53 -136 -87 -64 -75 -81 -205 -38 -295 87
-183 327 -219 468 -69 96 102 90 281 -13 383 -67 67 -184 95 -281 68z m162
-119 c66 -45 93 -107 79 -182 -13 -73 -83 -136 -151 -136 -140 0 -216 143
-143 268 41 69 150 94 215 50z"/>
<path d="M3685 1426 c-5 -2 -22 -7 -37 -10 -39 -9 -95 -61 -108 -102 -17 -49
-4 -109 32 -150 23 -26 47 -39 102 -55 158 -46 181 -62 157 -108 -14 -25 -74
-45 -114 -37 -34 7 -77 42 -77 63 0 9 -17 13 -59 13 l-60 0 10 -32 c21 -74 81
-122 163 -132 92 -12 170 11 220 63 24 25 30 41 33 88 7 97 -42 143 -176 172
-65 14 -118 38 -125 57 -11 28 12 63 49 73 52 14 104 -3 118 -40 11 -28 14
-29 70 -29 l59 0 -7 28 c-20 81 -86 131 -183 138 -31 2 -61 2 -67 0z"/>
<path d="M1030 1151 l0 -271 60 0 60 0 0 93 0 92 43 -45 c23 -25 60 -67 83
-93 l40 -48 73 3 73 3 -81 89 c-45 49 -80 91 -78 93 3 2 24 14 48 26 24 12 54
38 67 57 32 47 28 149 -6 198 -42 58 -71 66 -234 70 l-148 4 0 -271z m275 134
c28 -27 30 -42 14 -78 -15 -33 -49 -47 -114 -47 l-55 0 0 75 0 75 65 0 c57 0
69 -3 90 -25z"/>
<path d="M1520 1150 l0 -270 195 0 195 0 0 55 0 55 -135 0 -135 0 0 55 0 55
125 0 125 0 0 50 0 50 -125 0 -125 0 0 55 0 55 135 0 135 0 0 55 0 55 -195 0
-195 0 0 -270z"/>
<path d="M1950 1365 l0 -55 80 0 80 0 0 -215 0 -215 60 0 60 0 0 215 0 215 80
0 80 0 0 55 0 55 -220 0 -220 0 0 -55z"/>
<path d="M2440 1151 l0 -271 60 0 59 0 3 93 3 92 79 -92 80 -93 74 0 74 0 -50
58 c-28 31 -64 70 -81 86 -17 17 -31 33 -31 37 0 4 20 17 45 29 59 29 88 70
93 136 6 69 -24 134 -76 166 -33 21 -52 23 -184 26 l-148 4 0 -271z m271 141
c33 -27 30 -78 -5 -109 -22 -18 -39 -23 -87 -23 l-59 0 0 75 0 75 64 0 c47 0
70 -5 87 -18z"/>
<path d="M4010 1151 l0 -271 60 0 60 0 0 74 0 73 80 6 c124 10 187 51 211 141
23 85 -10 175 -79 218 -33 21 -51 23 -184 26 l-148 4 0 -271z m274 138 c36
-28 37 -89 1 -124 -21 -22 -33 -25 -90 -25 l-65 0 0 85 0 85 64 0 c49 0 69 -5
90 -21z"/>
<path d="M4650 1417 c0 -1 -21 -61 -46 -132 -25 -72 -68 -192 -95 -268 l-48
-138 62 3 61 3 14 48 13 47 109 0 108 0 17 -50 17 -50 59 0 c32 0 59 3 59 8 0
4 -41 125 -92 270 l-92 262 -73 0 c-40 0 -73 -1 -73 -3z m108 -225 c18 -54 32
-101 32 -105 0 -4 -31 -7 -70 -7 -38 0 -70 3 -70 7 0 15 65 203 70 203 3 0 20
-44 38 -98z"/>
<path d="M4565 646 c0 -66 3 -101 10 -95 16 16 18 131 4 167 -13 31 -14 26
-14 -72z"/>
<path d="M1703 725 c-38 -16 -53 -42 -53 -88 0 -95 138 -122 175 -34 34 82
-41 157 -122 122z m92 -30 c27 -26 31 -51 14 -88 -33 -72 -139 -47 -139 31 0
73 75 108 125 57z"/>
<path d="M3295 732 c-75 -25 -97 -94 -49 -151 19 -23 34 -31 59 -31 39 0 65 8
65 21 0 5 -12 4 -27 -2 -32 -12 -78 4 -93 32 -38 69 32 145 101 109 13 -8 19
-7 19 0 0 8 -45 33 -53 29 -1 -1 -11 -4 -22 -7z"/>
<path d="M3503 725 c-88 -37 -61 -175 34 -175 47 0 72 16 89 56 12 29 12 39 1
67 -24 56 -70 75 -124 52z m78 -18 c49 -37 44 -114 -10 -136 -45 -19 -96 9
-101 54 -4 39 0 54 22 75 24 22 65 26 89 7z"/>
<path d="M1451 708 c7 -13 20 -35 30 -50 11 -15 19 -43 19 -67 0 -23 5 -41 10
-41 6 0 10 21 10 46 0 34 7 56 30 90 20 28 26 44 18 44 -8 0 -22 -16 -32 -35
-11 -19 -23 -35 -27 -35 -5 0 -19 16 -31 35 -25 38 -46 48 -27 13z"/>
<path d="M1921 659 c-1 -88 12 -109 71 -109 54 0 68 23 67 111 l-2 74 -7 -69
c-5 -55 -12 -73 -30 -88 -28 -22 -32 -22 -60 0 -18 15 -25 33 -30 88 l-7 69
-2 -76z"/>
<path d="M2142 705 c0 -16 2 -22 5 -12 2 9 2 23 0 30 -3 6 -5 -1 -5 -18z"/>
<path d="M2241 638 c1 -51 4 -81 6 -65 4 22 9 27 33 27 19 0 33 -8 44 -25 9
-14 21 -25 26 -25 6 0 3 11 -5 24 -15 23 -15 26 4 45 25 25 27 58 5 89 -12 18
-25 22 -65 22 l-49 0 1 -92z m93 66 c19 -18 21 -55 4 -72 -7 -7 -29 -12 -50
-12 l-38 0 0 43 c0 24 3 47 7 50 12 13 62 7 77 -9z"/>
<path d="M2570 725 c0 -5 12 -46 27 -92 l27 -83 27 67 27 68 20 -45 c10 -25
23 -56 27 -70 7 -22 10 -18 30 40 30 90 37 120 27 120 -5 0 -17 -27 -27 -60
-10 -33 -21 -60 -25 -60 -3 0 -14 24 -24 53 -11 28 -22 55 -25 59 -4 5 -15
-17 -26 -48 -10 -30 -22 -57 -26 -60 -4 -2 -15 20 -24 48 -16 50 -35 83 -35
63z"/>
<path d="M2870 640 l0 -90 55 0 c30 0 55 5 55 10 0 6 -20 10 -45 10 l-45 0 0
39 c0 37 2 40 33 44 l32 4 -32 1 c-29 2 -33 5 -33 31 0 28 3 30 43 34 40 3 40
4 -10 5 l-53 2 0 -90z"/>
<path d="M3062 643 l-2 -93 45 0 c25 0 45 5 45 10 0 6 -18 10 -40 10 l-39 0
-4 83 -3 82 -2 -92z"/>
<path d="M3855 680 c-20 -27 -40 -50 -45 -50 -4 0 -26 21 -49 48 l-40 47 1
-90 c2 -73 3 -78 5 -27 2 34 8 62 13 62 4 0 22 -18 38 -41 l30 -40 33 47 34
46 3 -66 c4 -99 22 -80 22 24 0 50 -2 90 -4 90 -2 0 -21 -22 -41 -50z"/>
<path d="M3990 640 l0 -90 56 0 c34 0 53 4 49 10 -3 6 -26 10 -51 10 l-45 0 3
38 c3 33 6 37 33 41 l30 4 -30 6 c-24 5 -30 11 -30 31 0 22 5 26 45 31 l45 6
-52 1 -53 2 0 -90z"/>
<path d="M4306 671 c-4 -7 -5 -15 -2 -18 9 -9 19 4 14 18 -4 11 -6 11 -12 0z"/>
<path d="M4423 633 c9 -2 25 -2 35 0 9 3 1 5 -18 5 -19 0 -27 -2 -17 -5z"/>
<path d="M4300 560 c0 -5 5 -10 10 -10 6 0 10 5 10 10 0 6 -4 10 -10 10 -5 0
-10 -4 -10 -10z"/>
</g>
</svg>
